<svg width="283" height="217" viewBox="0 0 283 217" fill="none" xmlns="http://www.w3.org/2000/svg">
<path d="M65.1633 150.177L87.0741 115.791L38.0041 84.6525L12.6631 124.421L53.2502 150.177H65.1633Z" fill="#371C1C"/>
<path d="M96.2129 160.904H41.939V150.001H96.2129V160.904ZM42.6438 160.2H95.5081V150.704H42.6438V160.2Z" fill="#F3F9D2"/>
<path d="M89.5168 158.969C91.4632 158.969 93.0411 157.395 93.0411 155.452C93.0411 153.51 91.4632 151.935 89.5168 151.935C87.5704 151.935 85.9926 153.51 85.9926 155.452C85.9926 157.395 87.5704 158.969 89.5168 158.969Z" fill="#8AC6D0"/>
<path d="M79.6488 158.969C81.5952 158.969 83.1731 157.395 83.1731 155.452C83.1731 153.51 81.5952 151.935 79.6488 151.935C77.7024 151.935 76.1245 153.51 76.1245 155.452C76.1245 157.395 77.7024 158.969 79.6488 158.969Z" fill="#8AC6D0"/>
<path d="M69.7808 158.969C71.7272 158.969 73.3051 157.395 73.3051 155.452C73.3051 153.51 71.7272 151.935 69.7808 151.935C67.8344 151.935 66.2565 153.51 66.2565 155.452C66.2565 157.395 67.8344 158.969 69.7808 158.969Z" fill="#8AC6D0"/>
<path d="M59.9128 158.969C61.8592 158.969 63.4371 157.395 63.4371 155.452C63.4371 153.51 61.8592 151.935 59.9128 151.935C57.9664 151.935 56.3885 153.51 56.3885 155.452C56.3885 157.395 57.9664 158.969 59.9128 158.969Z" fill="#8AC6D0"/>
<path d="M50.0449 158.969C51.9913 158.969 53.5691 157.395 53.5691 155.452C53.5691 153.51 51.9913 151.935 50.0449 151.935C48.0984 151.935 46.5206 153.51 46.5206 155.452C46.5206 157.395 48.0984 158.969 50.0449 158.969Z" fill="#8AC6D0"/>
<path d="M160.707 39.7423V13.013H174.1V0H108.548V65.4165H164.584V59.0206C164.584 57.8284 164.819 56.6478 165.277 55.5463C165.734 54.4447 166.404 53.4439 167.249 52.6008C168.094 51.7578 169.096 51.089 170.2 50.6328C171.304 50.1765 172.487 49.9417 173.682 49.9417H174.1V39.7423H160.707Z" fill="#371C1C"/>
<path d="M233.308 168.817H189.606V177.961H233.308V168.817Z" fill="#EE6352"/>
<path d="M242.823 123.799H178.681V132.24H242.823V123.799Z" fill="#232323"/>
<path d="M278.189 216.297H4V217H278.189V216.297Z" fill="#292929"/>
<path d="M253.814 217H173.682C171.176 216.997 168.774 216.003 167.003 214.235C165.231 212.467 164.235 210.07 164.232 207.569V59.0206C164.234 56.5203 165.231 54.1233 167.003 52.3553C168.774 50.5873 171.176 49.5928 173.682 49.59H253.814C256.319 49.5928 258.721 50.5873 260.493 52.3553C262.265 54.1233 263.261 56.5203 263.264 59.0206V207.569C263.261 210.07 262.265 212.467 260.493 214.235C258.721 216.003 256.319 216.997 253.814 217ZM173.682 50.2934C171.363 50.296 169.14 51.2163 167.501 52.8524C165.861 54.4885 164.939 56.7068 164.936 59.0206V207.569C164.939 209.883 165.861 212.101 167.501 213.738C169.14 215.374 171.363 216.294 173.682 216.297H253.814C256.132 216.294 258.355 215.374 259.995 213.738C261.634 212.101 262.557 209.883 262.559 207.569V59.0206C262.557 56.7068 261.634 54.4885 259.995 52.8524C258.355 51.2163 256.132 50.296 253.814 50.2934H173.682Z" fill="#A5A5A5"/>
<path d="M204.232 56.624C203.814 56.624 203.405 56.5002 203.057 56.2684C202.71 56.0365 202.439 55.7069 202.279 55.3213C202.119 54.9357 202.077 54.5114 202.158 54.1021C202.24 53.6928 202.441 53.3167 202.737 53.0216C203.033 52.7265 203.41 52.5255 203.82 52.4441C204.23 52.3627 204.655 52.4045 205.041 52.5642C205.428 52.7239 205.758 52.9944 205.99 53.3414C206.223 53.6884 206.347 54.0964 206.347 54.5138C206.346 55.0733 206.123 55.6096 205.727 56.0053C205.33 56.4009 204.793 56.6234 204.232 56.624ZM204.232 53.107C203.953 53.107 203.681 53.1895 203.449 53.3441C203.217 53.4986 203.037 53.7184 202.93 53.9754C202.823 54.2325 202.795 54.5153 202.85 54.7882C202.904 55.0611 203.038 55.3118 203.235 55.5085C203.433 55.7053 203.684 55.8393 203.957 55.8936C204.231 55.9478 204.514 55.92 204.772 55.8135C205.029 55.707 205.249 55.5267 205.404 55.2954C205.559 55.064 205.642 54.792 205.642 54.5138C205.642 54.1408 205.493 53.7832 205.229 53.5195C204.964 53.2557 204.606 53.1074 204.232 53.107Z" fill="#A5A5A5"/>
<path d="M225.026 54.1621H209.519V54.8655H225.026V54.1621Z" fill="#A5A5A5"/>
<path d="M256.92 59.7893V87.9254C249.443 87.9251 242.272 84.9607 236.984 79.6842C231.697 74.4077 228.726 67.2514 228.726 59.7893H256.92Z" fill="#EE6352"/>
<path d="M257.273 207.504H170.223V59.4376H257.273V207.504ZM170.928 206.801H256.568V60.141H170.928V206.801Z" fill="#A5A5A5"/>
<path opacity="0.1" d="M236.479 86.1669C241.735 86.1669 245.995 81.9155 245.995 76.671C245.995 71.4265 241.735 67.1751 236.479 67.1751C231.224 67.1751 226.964 71.4265 226.964 76.671C226.964 81.9155 231.224 86.1669 236.479 86.1669Z" fill="black"/>
<path d="M235.07 87.222C240.325 87.222 244.585 82.9706 244.585 77.7261C244.585 72.4816 240.325 68.2301 235.07 68.2301C229.814 68.2301 225.554 72.4816 225.554 77.7261C225.554 82.9706 229.814 87.222 235.07 87.222Z" fill="#EE6352"/>
<path d="M187.492 65.4165H174.1V70.3404H187.492V65.4165Z" fill="#F3F9D2"/>
<path d="M194.893 112.193H181.501V117.117H194.893V112.193Z" fill="#F3F9D2"/>
<path d="M246.347 130.481H181.501V121.337H246.347V130.481ZM182.205 129.778H245.643V122.041H182.205V129.778Z" fill="#F3F9D2"/>
<path d="M242.823 150.528H178.681V158.969H242.823V150.528Z" fill="#232323"/>
<path d="M194.893 138.922H181.501V143.846H194.893V138.922Z" fill="#F3F9D2"/>
<path d="M246.347 157.211H181.501V148.066H246.347V157.211ZM182.205 156.507H245.643V148.77H182.205V156.507Z" fill="#F3F9D2"/>
<path d="M236.127 175.851H191.721V166.003H236.127V175.851ZM192.426 175.147H235.422V166.707H192.426V175.147Z" fill="#F3F9D2"/>
<path d="M244.585 126.964C244.585 127.688 244.361 128.395 243.944 128.987C243.527 129.579 242.936 130.029 242.254 130.274C241.571 130.519 240.829 130.548 240.129 130.356C239.43 130.165 238.806 129.763 238.344 129.205L238.34 129.201C238.003 128.793 237.763 128.315 237.637 127.802C237.511 127.288 237.502 126.753 237.612 126.236C237.721 125.719 237.946 125.233 238.27 124.815C238.594 124.397 239.008 124.056 239.481 123.82C239.955 123.583 240.476 123.456 241.005 123.448C241.535 123.44 242.059 123.551 242.54 123.773C243.021 123.995 243.445 124.322 243.781 124.73C244.118 125.139 244.358 125.617 244.483 126.131C244.483 126.131 244.483 126.132 244.483 126.132C244.484 126.133 244.484 126.133 244.484 126.133C244.484 126.134 244.485 126.134 244.485 126.134C244.486 126.134 244.486 126.134 244.487 126.134C244.552 126.406 244.585 126.685 244.585 126.964Z" fill="#EE6352"/>
<path opacity="0.1" d="M244.585 126.964C244.585 127.688 244.361 128.395 243.944 128.987C243.527 129.579 242.936 130.029 242.254 130.274C241.571 130.519 240.829 130.548 240.129 130.356C239.43 130.165 238.806 129.763 238.344 129.205L238.34 129.201C238.275 128.929 238.242 128.651 238.242 128.371C238.242 127.647 238.466 126.941 238.883 126.348C239.3 125.756 239.891 125.307 240.573 125.062C241.256 124.817 241.998 124.788 242.698 124.979C243.397 125.171 244.021 125.573 244.483 126.131C244.483 126.131 244.483 126.132 244.483 126.132C244.483 126.133 244.484 126.133 244.484 126.133C244.484 126.134 244.485 126.134 244.485 126.134C244.486 126.134 244.486 126.134 244.487 126.134C244.552 126.406 244.585 126.685 244.585 126.964Z" fill="black"/>
<path d="M242.471 132.592C244.417 132.592 245.995 131.017 245.995 129.075C245.995 127.132 244.417 125.558 242.471 125.558C240.524 125.558 238.946 127.132 238.946 129.075C238.946 131.017 240.524 132.592 242.471 132.592Z" fill="#EE6352"/>
<path d="M244.585 153.694C244.585 154.418 244.361 155.124 243.944 155.716C243.527 156.309 242.936 156.758 242.254 157.003C241.571 157.248 240.829 157.277 240.129 157.086C239.43 156.894 238.806 156.492 238.344 155.934L238.34 155.931C238.003 155.523 237.763 155.044 237.637 154.531C237.511 154.018 237.502 153.483 237.612 152.965C237.721 152.448 237.946 151.963 238.27 151.544C238.594 151.126 239.008 150.786 239.481 150.549C239.955 150.312 240.476 150.185 241.005 150.177C241.535 150.169 242.059 150.28 242.54 150.502C243.021 150.724 243.445 151.052 243.781 151.46C244.118 151.868 244.358 152.347 244.483 152.86C244.483 152.861 244.483 152.861 244.483 152.862C244.484 152.862 244.484 152.862 244.484 152.863C244.484 152.863 244.485 152.863 244.485 152.863C244.486 152.864 244.486 152.864 244.487 152.864C244.552 153.136 244.585 153.414 244.585 153.694Z" fill="#EE6352"/>
<path opacity="0.1" d="M244.585 153.694C244.585 154.418 244.361 155.124 243.944 155.716C243.527 156.309 242.936 156.758 242.254 157.003C241.571 157.248 240.829 157.277 240.129 157.086C239.43 156.894 238.806 156.492 238.344 155.934L238.34 155.93C238.275 155.659 238.242 155.38 238.242 155.1C238.242 154.376 238.466 153.67 238.883 153.078C239.3 152.485 239.891 152.036 240.573 151.791C241.256 151.546 241.998 151.517 242.698 151.708C243.397 151.9 244.021 152.302 244.483 152.86C244.483 152.861 244.483 152.861 244.483 152.861C244.483 152.862 244.484 152.862 244.484 152.863C244.484 152.863 244.485 152.863 244.485 152.863C244.486 152.864 244.486 152.864 244.487 152.864C244.552 153.136 244.585 153.414 244.585 153.694Z" fill="black"/>
<path d="M242.471 159.321C244.417 159.321 245.995 157.746 245.995 155.804C245.995 153.861 244.417 152.287 242.471 152.287C240.524 152.287 238.946 153.861 238.946 155.804C238.946 157.746 240.524 159.321 242.471 159.321Z" fill="#EE6352"/>
<path d="M183.263 16.8817H164.937V35.1702H183.263V16.8817Z" fill="#371C1C"/>
<path d="M236.479 30.2464C235.643 30.2464 234.825 29.9988 234.13 29.5351C233.434 29.0713 232.892 28.4122 232.572 27.641C232.252 26.8698 232.168 26.0213 232.332 25.2026C232.495 24.3839 232.898 23.6319 233.489 23.0416C234.08 22.4514 234.834 22.0495 235.654 21.8866C236.475 21.7238 237.325 21.8073 238.098 22.1268C238.871 22.4462 239.531 22.9872 239.996 23.6812C240.461 24.3752 240.709 25.1912 240.709 26.0259C240.707 27.1449 240.261 28.2176 239.469 29.0088C238.676 29.8001 237.601 30.2451 236.479 30.2464ZM236.479 22.5089C235.782 22.5089 235.101 22.7152 234.521 23.1016C233.942 23.4881 233.49 24.0374 233.223 24.68C232.957 25.3227 232.887 26.0298 233.023 26.7121C233.159 27.3943 233.495 28.021 233.987 28.5128C234.48 29.0047 235.108 29.3397 235.792 29.4754C236.476 29.6111 237.184 29.5414 237.828 29.2752C238.472 29.009 239.023 28.5583 239.41 27.9799C239.797 27.4015 240.004 26.7215 240.004 26.0259C240.003 25.0935 239.631 24.1995 238.97 23.5402C238.31 22.8809 237.414 22.51 236.479 22.5089Z" fill="#FF3864"/>
<path d="M143.438 88.9806H134.275V79.8363H143.438V88.9806ZM134.98 88.2771H142.734V80.5397H134.98V88.2771Z" fill="#FB8B24"/>
<path d="M283 157.211H273.837V148.066H283V157.211ZM274.542 156.507H282.295V148.77H274.542V156.507Z" fill="#BC96E6"/>
<path d="M102.205 95.8973L103.778 96.7425L109.128 99.6203L117.766 104.265L122.8 94.9442C123.274 94.0684 123.571 93.1079 123.673 92.1177C123.774 91.1275 123.679 90.127 123.393 89.1735C123.107 88.2199 122.635 87.3321 122.004 86.5608C121.374 85.7894 120.597 85.1497 119.719 84.6783C117.841 83.6666 115.691 83.2758 113.576 83.562C111.462 83.8483 109.494 84.7969 107.954 86.2713L107.952 86.2739C107.194 86.9998 106.555 87.8393 106.057 88.762L102.205 95.8973Z" fill="#393200"/>
<path d="M125.782 190.952L124.727 202.537L120.769 203.063L118.13 189.899L125.782 190.952Z" fill="#F19953"/>
<path d="M119.713 203.063C119.713 203.063 124.726 200.43 125.782 202.537C125.782 202.537 124.99 208.856 128.156 209.646C131.322 210.436 132.642 215.965 128.156 216.491C123.671 217.018 120.769 215.438 119.186 215.438C117.603 215.438 119.186 209.909 119.186 209.909L119.713 203.063Z" fill="#FF3864"/>
<path d="M93.8573 190.952L94.9128 202.537L98.8702 203.063L101.509 189.899L93.8573 190.952Z" fill="#F19953"/>
<path d="M99.9256 203.063C99.9256 203.063 94.9127 200.43 93.8573 202.537C93.8573 202.537 94.6488 208.856 91.4828 209.646C88.3167 210.436 86.9975 215.965 91.4828 216.491C95.968 217.018 98.8703 215.438 100.453 215.438C102.036 215.438 100.453 209.909 100.453 209.909L99.9256 203.063Z" fill="#FF3864"/>
<path d="M115.492 98.0089C119.281 98.0089 122.352 94.944 122.352 91.1633C122.352 87.3825 119.281 84.3176 115.492 84.3176C111.703 84.3176 108.632 87.3825 108.632 91.1633C108.632 94.944 111.703 98.0089 115.492 98.0089Z" fill="#F19953"/>
<path d="M93.5935 104.591L99.1341 113.28L105.73 112.753L116.547 113.543C116.547 113.543 117.568 111.505 118.402 109.523C118.859 108.533 119.21 107.498 119.45 106.434C119.713 104.591 116.02 102.748 116.02 102.748C116.02 102.748 115.875 102.722 115.632 102.664C115.31 102.588 114.814 102.461 114.27 102.277C113.044 101.861 111.569 101.155 111.271 100.115C110.743 98.2722 114.701 95.6393 114.701 95.6393L109.951 91.1633C109.951 91.1633 105.733 97.011 100.609 98.3433C100.312 98.4216 100.011 98.4832 99.7066 98.5276C99.6908 98.5302 99.6776 98.5329 99.6618 98.5355C94.1212 99.3254 93.5935 104.591 93.5935 104.591Z" fill="#F19953"/>
<path d="M96.4957 102.222L93.5935 104.591C93.5935 104.591 91.2189 115.913 92.0104 119.072C92.802 122.232 91.7466 125.128 91.7466 125.655C91.7466 126.181 89.3721 145.928 89.3721 145.928C89.3721 145.928 84.623 156.46 89.6359 155.407C94.6488 154.354 92.802 143.822 92.802 143.822L98.8702 125.392V109.857L96.4957 102.222Z" fill="#F19953"/>
<path d="M117.339 104.328L119.45 105.908L120.505 128.024L128.42 146.982C128.42 146.982 134.225 156.197 130.531 156.46C126.837 156.724 124.463 146.982 124.463 146.982L117.339 128.814L116.284 111.174L117.339 104.328Z" fill="#F19953"/>
<path d="M104.147 105.908C104.147 105.908 109.424 109.594 117.867 108.277C117.867 108.277 120.241 113.017 118.922 115.65C117.603 118.283 120.505 124.602 121.033 125.391C121.56 126.181 127.629 142.506 129.739 160.146C131.85 177.787 137.654 189.899 132.641 191.478C127.629 193.058 117.339 194.901 116.284 193.321C115.228 191.742 113.645 152.511 113.645 152.511L110.743 167.519C110.743 167.519 114.7 193.058 111.798 193.585C108.896 194.111 90.6912 192.532 91.2189 189.372C91.7466 186.212 97.0233 169.625 97.0233 169.625C97.0233 169.625 96.7595 136.45 102.036 130.131C102.036 130.131 104.147 126.708 101.245 122.232C98.3425 117.756 98.6064 110.647 98.6064 110.647C98.6064 110.647 100.717 110.647 104.147 105.908Z" fill="#FF3864"/>
<path d="M99.7066 98.5275L104.147 108.277L105.202 107.751L100.609 98.3432L99.7066 98.5275Z" fill="#FF3864"/>
<path d="M114.271 102.277L117.603 109.594L118.402 109.523L118.13 108.277L115.632 102.664C115.31 102.588 114.814 102.461 114.271 102.277Z" fill="#FF3864"/>
<path d="M103.778 96.7425C104.031 97.557 104.52 98.2787 105.183 98.8171C105.846 99.3556 106.653 99.6869 107.504 99.7696C108.355 99.8522 109.211 99.6825 109.965 99.2817C110.72 98.881 111.339 98.2669 111.746 97.5165C108.408 93.1617 111.271 90.426 116.692 88.3565C117.101 87.6001 117.275 86.7396 117.191 85.8844C117.108 85.0292 116.772 84.218 116.225 83.5541C114.731 83.3633 113.213 83.5083 111.782 83.9784C110.351 84.4485 109.043 85.2319 107.954 86.2713L107.952 86.2739L104.1 93.4039C103.825 93.9107 103.655 94.4673 103.6 95.0407C103.545 95.6141 103.605 96.1927 103.778 96.7425Z" fill="#393200"/>
<path d="M111.403 93.5329C111.913 93.5329 112.326 92.8256 112.326 91.9531C112.326 91.0807 111.913 90.3734 111.403 90.3734C110.893 90.3734 110.479 91.0807 110.479 91.9531C110.479 92.8256 110.893 93.5329 111.403 93.5329Z" fill="#F19953"/>
<path d="M114.154 89.3755L122.085 92.9615L123.539 89.7599C123.289 88.5897 122.764 87.4953 122.009 86.5661L116.55 84.0991L114.154 89.3755Z" fill="#393200"/>
<path d="M20.0731 180.932C21.3451 180.932 22.3763 179.903 22.3763 178.633C22.3763 177.364 21.3451 176.335 20.0731 176.335C18.801 176.335 17.7698 177.364 17.7698 178.633C17.7698 179.903 18.801 180.932 20.0731 180.932Z" fill="#FF6584"/>
<path d="M31.7098 190.613H31.0049V216.783H31.7098V190.613Z" fill="#C0D684"/>
<path d="M31.3574 194.314C33.4056 194.314 35.0659 192.657 35.0659 190.613C35.0659 188.569 33.4056 186.912 31.3574 186.912C29.3092 186.912 27.6489 188.569 27.6489 190.613C27.6489 192.657 29.3092 194.314 31.3574 194.314Z" fill="#C0D684"/>
<path d="M31.3574 206.742C31.3574 206.742 30.8276 195.371 19.9669 196.693L31.3574 206.742Z" fill="#C0D684"/>
</svg>
