<svg id="Layer_1" data-name="Layer 1" xmlns="http://www.w3.org/2000/svg" viewBox="0 0 1857.3 1436.58"><title>logo</title><path d="M211.08,462.41c-47.56,6.38-85.84,49.8-85.84,97.37s38.28,80.71,85.84,74.32l62.78-8.42c47.56-6.39,85.85-49.81,85.85-97.38S321.42,447.6,273.86,454Z" transform="translate(-31.7 -241.09)"/><path d="M477.89,426.59C430.33,433,392.05,476.4,392.05,524s38.28,80.71,85.84,74.32l361.16-48.47c1.58-.17,3.08-.56,4.58-.84v.45c45.4-3.72,81.28,28.7,81.28,74.72S889,712.2,843.63,720.68v.17l-4.58.61L725.29,736.73c-47.57,6.38-85.85,49.81-85.85,97.37s38.28,80.72,85.85,74.34l113.76-15.27,4.58-.61v.17c45.4-3.72,81.28,28.69,81.28,74.71s-35.88,88-81.28,96.53v.45c-1.56.11-3.07.14-4.58.36l-260,34.9-205.25,27.54C326.26,1133.61,288,1177,288,1224.59s38.29,80.73,85.85,74.34L608,1267.5l231.07-31c1.58-.17,3.08-.56,4.58-.84v.45c45.4-3.71,81.28,28.7,81.28,74.71s-35.88,88.06-81.28,96.53v.36c-1.13.08-2.09.11-3.26.17L839,1408l-93.86,12.59c-47.57,6.39-85.87,49.82-85.87,97.39s38.3,80.71,85.87,74.32l95.19-12.78c1.14-.1,2.11-.41,3.27-.58v.13l248.5-33.34V1024.93l69.59-9.34q38.94-5.24,60.47,1.83,21.54,6.23,37.27,26.47l309,390.93a128.81,128.81,0,0,0,15.74,18.6,63.21,63.21,0,0,0,19.88,11.41,103.32,103.32,0,0,0,26.51,5.55c10.5.8,22.93.17,37.27-1.68L1889,1439,1496.36,930.93q-21.54-27.76-44.74-42.87a166.73,166.73,0,0,0-52.19-23.65q39.78-26.05,77-79.09l382.69-544.23L1643.8,270q-37.27,5-62.94,20-25.69,14.2-47.22,46.1l-304,447.52q-27.33,41.76-88.64,50l-48.87,6.56V344.11l-248.5,33.36v.17c-1.57.1-3.07.13-4.58.36Z" transform="translate(-31.7 -241.09)"/><path d="M323.64,790.71c-47.56,6.38-85.85,49.8-85.85,97.37s38.29,80.72,85.85,74.33l196.43-26.36c47.56-6.38,85.86-49.82,85.86-97.38s-38.3-80.71-85.86-74.33L477.89,770Z" transform="translate(-31.7 -241.09)"/><path d="M117.54,1505.18C70,1511.56,31.7,1555,31.7,1602.56s38.28,80.71,85.84,74.33L298,1652.67c47.56-6.39,85.86-49.82,85.86-97.38S345.59,1474.57,298,1481Z" transform="translate(-31.7 -241.09)"/><path d="M502.86,1453.46c-47.57,6.39-85.86,49.83-85.86,97.39s38.29,80.71,85.86,74.32l37.39-5c47.56-6.39,85.84-49.81,85.84-97.38s-38.28-80.72-85.84-74.33Z" transform="translate(-31.7 -241.09)"/></svg>